<?xml version="1.0" standalone="no"?><!DOCTYPE svg PUBLIC "-//W3C//DTD SVG 1.1//EN" "http://www.w3.org/Graphics/SVG/1.1/DTD/svg11.dtd"><svg t="1689239268977" class="icon" viewBox="0 0 1024 1024" version="1.1" xmlns="http://www.w3.org/2000/svg" p-id="6757" xmlns:xlink="http://www.w3.org/1999/xlink" width="200" height="200"><path d="M512 0c282.767 0 512 229.233 512 512s-229.233 512-512 512S0 794.767 0 512 229.233 0 512 0z m0 0c282.767 0 512 229.233 512 512s-229.233 512-512 512S0 794.767 0 512 229.233 0 512 0z" fill="#2EA9D3" p-id="6758"></path><path d="M512 20.48c-124.662 0-238.889 44.595-327.68 118.65V819.2l40.96-30.72 40.96 30.72 40.96-30.72 40.96 30.72 40.96-30.72 40.96 30.72 40.96-30.72L512 819.2l40.96-30.72 40.96 30.72 40.96-30.72 40.96 30.72 40.96-30.72 40.96 30.72 40.96-30.72 40.96 30.72V139.13C750.879 65.076 636.662 20.48 512 20.48z" fill="#2998BD" p-id="6759"></path><path d="M512 0C387.338 0 273.111 44.595 184.32 118.65v680.07L225.28 768l40.96 30.72L307.2 768l40.96 30.72L389.12 768l40.96 30.72L471.04 768 512 798.72 552.96 768l40.96 30.72L634.88 768l40.96 30.72L716.8 768l40.96 30.72L798.72 768l40.96 30.72V118.65C750.879 44.596 636.662 0 512 0z" fill="#F2F1EF" p-id="6760"></path><path d="M544.686 628.961v-16.855c5.438 0.635 8.817 3.42 13.036 3.42 4.956 0 8.1-4.444 8.1-9.38 0-9.134-13.886-12.165-21.136-12.43v-3.923c0-3.43 0-5.96-3.256-5.96s-3.257 2.53-3.257 5.96v3.922c-14.356 1.649-25.948 12.298-25.948 28.529 0 18.135 14.49 21.432 25.948 24.965v21.176c-7.004-0.768-13.035-4.823-18.217-4.823-4.956 0-8.1 4.055-8.1 9.001 0 10.896 16.538 13.691 26.317 13.937v3.932c0 2.918 0 5.96 3.257 5.96s3.256-3.042 3.256-5.96v-4.055c15.104-1.27 27.423-12.165 27.423-29.04 0-20.378-15.698-24.812-27.423-28.376z m-6.513-2.283c-3.86-1.516-6.39-3.42-6.39-6.707 0-4.055 2.776-6.718 6.39-7.732v14.439z m6.513 41.206V649.38c4.598 1.648 7.864 4.055 7.864 8.243 0 4.936-2.785 9.001-7.864 10.26z m89.027 0.634h-22.088c10.27-13.557 28.98-31.058 28.98-48.68 0-16.098-11.95-26.369-26.81-26.369-14.837 0-28.374 12.81-28.374 28.785 0 4.936 3.02 9.247 8.806 9.247 11.602 0 4.956-20.542 18.842-20.542 4.946 0 8.704 4.567 8.704 9.77 0 4.556-2.058 8.488-4.23 11.786-9.174 13.936-20.05 25.354-30.074 37.898-1.198 1.515-2.775 3.81-2.775 6.471 0 5.827 4.096 8.356 9.41 8.356h40.325c4.588 0 8.694-2.529 8.694-8.356s-4.096-8.366-9.41-8.366z m68.26-32.45c6.635-4.444 9.902-11.408 9.902-19.405 0-9.892-8.326-23.204-25.723-23.204-13.404 0-26.317 10.65-26.317 20.542 0 4.69 2.898 9.38 7.864 9.38 8.202 0 6.636-12.432 18.105-12.432 5.437 0 8.704 3.676 8.704 8.5 0 14.07-17.152 5.068-17.152 18.38 0 14.96 20.53 1.905 20.53 19.65 0 6.718-5.068 11.787-11.345 11.787-13.65 0-11.715-14.828-19.927-14.828-4.342 0-9.288 3.554-9.288 8.49 0 10.024 11.11 23.838 28.98 23.838 17.141 0 30.422-12.81 30.422-28.017-0.03-10.004-6.062-18.503-14.756-22.681z" fill="#E4665C" p-id="6761"></path><path d="M286.72 491.52h450.56V512H286.72v-20.48z" fill="#D9D8D7" p-id="6762"></path><path d="M286.72 235.254h368.64v-40.93H286.72v40.93z m286.72 41H286.72v40.93h286.72v-40.93z m-286.72 122.84h348.16v-40.92H286.72v40.92z m409.6-204.729v41.165h40.96v-41.165h-40.96z m0 123.085h40.96v-41.165h-40.96v41.165z m0 81.92h40.96v-41.165h-40.96v41.165z" fill="#868686" p-id="6763"></path><path d="M378.88 17.582a506.839 506.839 0 0 0-40.96 12.82v82.238h40.96V17.582z m40.96-9.144a503.194 503.194 0 0 0-20.48 4.147V112.64h20.48V8.438z m-102.4 29.931a507.965 507.965 0 0 0-30.72 13.814v60.457h30.72V38.37z m153.6-36.587c-10.322 0.819-20.572 1.904-30.72 3.318v107.54h30.72V1.782zM512 0c-6.871 0-13.68 0.246-20.48 0.522V112.64H512V0z m184.32 34.335a517.755 517.755 0 0 0-20.48-7.394v85.699h20.48V34.335z m20.48 8.386v69.919h20.48V52.183a515.717 515.717 0 0 0-20.48-9.462zM573.44 3.8A508.477 508.477 0 0 0 532.48 0.522V112.64h40.96V3.799z m40.97 6.461c-6.779-1.372-13.619-2.56-20.49-3.655V112.64h20.49V10.26z m40.95 10.23a501.514 501.514 0 0 0-20.47-5.55v97.7h20.47V20.49z" fill="#E4665C" p-id="6764"></path></svg>